<svg width="24" height="24" viewBox="0 0 24 24" fill="none" xmlns="http://www.w3.org/2000/svg">
<path fill-rule="evenodd" clip-rule="evenodd" d="M12.4 22.4C15.0522 22.4 17.5957 21.3464 19.4711 19.4711C21.3465 17.5957 22.4 15.0522 22.4 12.4C22.4 9.74783 21.3465 7.20429 19.4711 5.32893C17.5957 3.45356 15.0522 2.39999 12.4 2.39999C9.74786 2.39999 7.20432 3.45356 5.32896 5.32893C3.45359 7.20429 2.40002 9.74783 2.40002 12.4C2.40002 15.0522 3.45359 17.5957 5.32896 19.4711C7.20432 21.3464 9.74786 22.4 12.4 22.4ZM17.0338 10.7837C17.2615 10.548 17.3875 10.2322 17.3846 9.90449C17.3818 9.57675 17.2503 9.26323 17.0185 9.03147C16.7868 8.79971 16.4733 8.66825 16.1455 8.6654C15.8178 8.66255 15.502 8.78855 15.2663 9.01624L11.15 13.1325L9.53377 11.5162C9.29802 11.2885 8.98227 11.1626 8.65452 11.1654C8.32678 11.1682 8.01326 11.2997 7.7815 11.5315C7.54974 11.7632 7.41828 12.0767 7.41543 12.4045C7.41258 12.7322 7.53858 13.048 7.76627 13.2837L10.2663 15.7837C10.5007 16.0181 10.8186 16.1497 11.15 16.1497C11.4815 16.1497 11.7994 16.0181 12.0338 15.7837L17.0338 10.7837Z" fill="#009966"/>
</svg>
