<svg width="24" height="24" viewBox="0 0 24 24" fill="none" xmlns="http://www.w3.org/2000/svg">
<path fill-rule="evenodd" clip-rule="evenodd" d="M20.53 4.53C20.6625 4.38782 20.7346 4.19978 20.7312 4.00548C20.7278 3.81118 20.6491 3.62579 20.5117 3.48838C20.3742 3.35096 20.1889 3.27225 19.9946 3.26882C19.8003 3.2654 19.6122 3.33752 19.47 3.47L3.47003 19.47C3.39634 19.5387 3.33724 19.6215 3.29625 19.7135C3.25526 19.8055 3.23322 19.9048 3.23144 20.0055C3.22966 20.1062 3.24819 20.2062 3.28591 20.2996C3.32363 20.393 3.37977 20.4778 3.45099 20.549C3.52221 20.6203 3.60705 20.6764 3.70043 20.7141C3.79382 20.7518 3.89385 20.7704 3.99455 20.7686C4.09526 20.7668 4.19457 20.7448 4.28657 20.7038C4.37857 20.6628 4.46137 20.6037 4.53003 20.53L7.56503 17.495C8.88303 18.103 10.392 18.5 12 18.5C14.618 18.5 16.972 17.449 18.668 16.147C19.518 15.495 20.215 14.771 20.703 14.067C21.183 13.375 21.5 12.649 21.5 12C21.5 11.351 21.183 10.625 20.703 9.934C20.215 9.229 19.518 8.505 18.668 7.854C18.3974 7.64533 18.1107 7.445 17.808 7.253L20.53 4.53ZM15.13 9.932L14.03 11.03C14.2306 11.4499 14.296 11.9216 14.2173 12.3801C14.1386 12.8387 13.9197 13.2617 13.5907 13.5907C13.2617 13.9197 12.8388 14.1386 12.3802 14.2173C11.9216 14.2959 11.4499 14.2305 11.03 14.03L9.93003 15.13C10.6512 15.6075 11.5152 15.821 12.3757 15.7344C13.2362 15.6478 14.0404 15.2665 14.6519 14.6549C15.2635 14.0433 15.6449 13.2392 15.7314 12.3787C15.818 11.5181 15.6045 10.6541 15.127 9.933" fill="#52525C"/>
<path d="M12.67 8.31C12.7111 8.31771 12.7535 8.31537 12.7936 8.30318C12.8336 8.29099 12.8701 8.26932 12.9 8.24L14.85 6.29C14.8803 6.26019 14.9023 6.22294 14.9137 6.18198C14.9251 6.14102 14.9256 6.09779 14.915 6.05659C14.9045 6.0154 14.8834 5.97769 14.8537 5.94722C14.824 5.91676 14.7869 5.89462 14.746 5.883C13.8524 5.63094 12.9285 5.50209 12 5.5C9.382 5.5 7.028 6.551 5.332 7.853C4.482 8.505 3.785 9.229 3.296 9.933C2.816 10.625 2.5 11.351 2.5 12C2.5 12.649 2.817 13.375 3.296 14.066C3.77198 14.7338 4.33419 15.3357 4.968 15.856C5.01544 15.8952 5.07584 15.9152 5.13731 15.9121C5.19877 15.9089 5.25682 15.8828 5.3 15.839L8.24 12.899C8.26932 12.8691 8.29099 12.8326 8.30318 12.7926C8.31537 12.7525 8.31771 12.7101 8.31 12.669C8.27 12.4523 8.25 12.2293 8.25 12C8.24995 11.4508 8.37055 10.9082 8.60326 10.4107C8.83598 9.91325 9.17513 9.47295 9.59675 9.12097C10.0184 8.76898 10.5122 8.51391 11.0432 8.37378C11.5743 8.23364 12.1296 8.21187 12.67 8.31Z" fill="#52525C"/>
</svg>
