<svg width="24" height="25" viewBox="0 0 24 25" fill="none" xmlns="http://www.w3.org/2000/svg">
<path d="M12 17.5C12.2833 17.5 12.521 17.404 12.713 17.212C12.905 17.02 13.0007 16.7827 13 16.5C12.9993 16.2173 12.9033 15.98 12.712 15.788C12.5207 15.596 12.2833 15.5 12 15.5C11.7167 15.5 11.4793 15.596 11.288 15.788C11.0967 15.98 11.0007 16.2173 11 16.5C10.9993 16.7827 11.0953 17.0203 11.288 17.213C11.4807 17.4057 11.718 17.5013 12 17.5ZM12 13.5C12.2833 13.5 12.521 13.404 12.713 13.212C12.905 13.02 13.0007 12.7827 13 12.5V8.5C13 8.21667 12.904 7.97933 12.712 7.788C12.52 7.59667 12.2827 7.50067 12 7.5C11.7173 7.49933 11.48 7.59533 11.288 7.788C11.096 7.98067 11 8.218 11 8.5V12.5C11 12.7833 11.096 13.021 11.288 13.213C11.48 13.405 11.7173 13.5007 12 13.5ZM12 22.5C10.6167 22.5 9.31667 22.2373 8.1 21.712C6.88334 21.1867 5.825 20.4743 4.925 19.575C4.025 18.6757 3.31267 17.6173 2.788 16.4C2.26333 15.1827 2.00067 13.8827 2 12.5C1.99933 11.1173 2.262 9.81733 2.788 8.6C3.314 7.38267 4.02633 6.32433 4.925 5.425C5.82367 4.52567 6.882 3.81333 8.1 3.288C9.318 2.76267 10.618 2.5 12 2.5C13.382 2.5 14.682 2.76267 15.9 3.288C17.118 3.81333 18.1763 4.52567 19.075 5.425C19.9737 6.32433 20.6863 7.38267 21.213 8.6C21.7397 9.81733 22.002 11.1173 22 12.5C21.998 13.8827 21.7353 15.1827 21.212 16.4C20.6887 17.6173 19.9763 18.6757 19.075 19.575C18.1737 20.4743 17.1153 21.187 15.9 21.713C14.6847 22.239 13.3847 22.5013 12 22.5Z" fill="#E7000B"/>
</svg>
