<svg width="10" height="10" viewBox="0 0 10 10" fill="none" xmlns="http://www.w3.org/2000/svg">
<g clip-path="url(#clip0_188_2821)">
<path d="M2.91659 4.16667V9.16667M6.24992 2.45L5.83325 4.16667H8.26242C8.39179 4.16667 8.51938 4.19679 8.6351 4.25464C8.75081 4.3125 8.85146 4.3965 8.92909 4.5C9.00671 4.6035 9.05917 4.72364 9.08231 4.85093C9.10545 4.97821 9.09864 5.10914 9.06242 5.23333L8.09159 8.56666C8.0411 8.73976 7.93583 8.89181 7.79159 9C7.64734 9.10818 7.47189 9.16667 7.29159 9.16667H1.66659C1.44557 9.16667 1.23361 9.07887 1.07733 8.92259C0.921049 8.76631 0.833252 8.55435 0.833252 8.33333V5C0.833252 4.77898 0.921049 4.56702 1.07733 4.41074C1.23361 4.25446 1.44557 4.16667 1.66659 4.16667H2.81659C2.97162 4.16658 3.12356 4.12325 3.25532 4.04155C3.38707 3.95984 3.49343 3.843 3.56242 3.70417L4.99992 0.833332C5.19641 0.835765 5.38981 0.882569 5.56567 0.970247C5.74153 1.05793 5.89531 1.18421 6.0155 1.33967C6.1357 1.49512 6.21922 1.67573 6.25981 1.868C6.3004 2.06027 6.29702 2.25922 6.24992 2.45Z" stroke="#FF5722" stroke-linecap="round" stroke-linejoin="round"/>
</g>
<defs>
<clipPath id="clip0_188_2821">
<rect width="10" height="10" fill="white"/>
</clipPath>
</defs>
</svg>
