<svg width="16" height="16" viewBox="0 0 16 16" fill="none" xmlns="http://www.w3.org/2000/svg">
<g clip-path="url(#clip0_191_3000)">
<path d="M11.75 13.8994H3C2.66848 13.8994 2.35054 13.7677 2.11612 13.5333C1.8817 13.2989 1.75 12.9809 1.75 12.6494V3.89941M14.25 8.27441L13.44 7.46441C13.1575 7.18199 12.7744 7.02332 12.375 7.02332C11.9756 7.02332 11.5925 7.18199 11.31 7.46441L7.375 11.3994M9.25 5.14941C9.25 5.83977 8.69036 6.39941 8 6.39941C7.30964 6.39941 6.75 5.83977 6.75 5.14941C6.75 4.45906 7.30964 3.89941 8 3.89941C8.69036 3.89941 9.25 4.45906 9.25 5.14941ZM5.5 1.39941H13C13.6904 1.39941 14.25 1.95906 14.25 2.64941V10.1494C14.25 10.8398 13.6904 11.3994 13 11.3994H5.5C4.80964 11.3994 4.25 10.8398 4.25 10.1494V2.64941C4.25 1.95906 4.80964 1.39941 5.5 1.39941Z" stroke="white" stroke-linecap="round" stroke-linejoin="round"/>
</g>
<defs>
<clipPath id="clip0_191_3000">
<rect width="15" height="15" fill="white" transform="translate(0.5 0.149414)"/>
</clipPath>
</defs>
</svg>
