<svg width="31" height="31" viewBox="0 0 31 31" fill="none" xmlns="http://www.w3.org/2000/svg">
<path d="M3.63632 10.4565C3.42955 9.52509 3.4613 8.55654 3.72863 7.64066C3.99596 6.72478 4.49022 5.89123 5.16557 5.21729C5.84093 4.54335 6.67551 4.05084 7.59195 3.78542C8.50839 3.52001 9.47701 3.49029 10.408 3.69901C10.9204 2.89761 11.6263 2.23809 12.4607 1.78125C13.295 1.32442 14.2309 1.08496 15.1822 1.08496C16.1334 1.08496 17.0693 1.32442 17.9036 1.78125C18.738 2.23809 19.4439 2.89761 19.9563 3.69901C20.8887 3.48938 21.859 3.51897 22.7769 3.78503C23.6948 4.05108 24.5305 4.54496 25.2063 5.22073C25.882 5.8965 26.3759 6.7322 26.642 7.6501C26.908 8.568 26.9376 9.53828 26.728 10.4707C27.5294 10.9831 28.1889 11.689 28.6458 12.5234C29.1026 13.3577 29.342 14.2936 29.342 15.2448C29.342 16.1961 29.1026 17.132 28.6458 17.9663C28.1889 18.8007 27.5294 19.5066 26.728 20.019C26.9367 20.95 26.907 21.9186 26.6416 22.8351C26.3762 23.7515 25.8837 24.5861 25.2097 25.2614C24.5358 25.9368 23.7022 26.431 22.7863 26.6984C21.8705 26.9657 20.9019 26.9975 19.9705 26.7907C19.4587 27.5952 18.7523 28.2575 17.9165 28.7164C17.0807 29.1753 16.1427 29.4158 15.1892 29.4158C14.2358 29.4158 13.2977 29.1753 12.462 28.7164C11.6262 28.2575 10.9197 27.5952 10.408 26.7907C9.47701 26.9994 8.50839 26.9697 7.59195 26.7043C6.67551 26.4389 5.84093 25.9464 5.16557 25.2724C4.49022 24.5985 3.99596 23.7649 3.72863 22.849C3.4613 21.9332 3.42955 20.9646 3.63632 20.0332C2.82876 19.5221 2.16358 18.8151 1.70264 17.9779C1.24171 17.1407 1 16.2005 1 15.2448C1 14.2892 1.24171 13.349 1.70264 12.5118C2.16358 11.6746 2.82876 10.9676 3.63632 10.4565Z" fill="#FF5722"/>
<path d="M10.9322 15.2448L13.7655 18.0782L19.4322 12.4115" fill="#FF5722"/>
<path d="M10.9322 15.2448L13.7655 18.0782L19.4322 12.4115M3.63632 10.4565C3.42955 9.52509 3.4613 8.55654 3.72863 7.64066C3.99596 6.72478 4.49022 5.89123 5.16557 5.21729C5.84093 4.54335 6.67551 4.05084 7.59195 3.78542C8.50839 3.52001 9.477 3.49029 10.408 3.69901C10.9204 2.89761 11.6263 2.23809 12.4607 1.78125C13.295 1.32442 14.2309 1.08496 15.1822 1.08496C16.1334 1.08496 17.0693 1.32442 17.9036 1.78125C18.738 2.23809 19.4439 2.89761 19.9563 3.69901C20.8887 3.48938 21.859 3.51897 22.7769 3.78503C23.6948 4.05108 24.5305 4.54496 25.2063 5.22073C25.882 5.8965 26.3759 6.7322 26.642 7.6501C26.908 8.568 26.9376 9.53828 26.728 10.4707C27.5294 10.9831 28.1889 11.689 28.6458 12.5234C29.1026 13.3577 29.342 14.2936 29.342 15.2448C29.342 16.1961 29.1026 17.132 28.6458 17.9663C28.1889 18.8007 27.5294 19.5066 26.728 20.019C26.9367 20.95 26.907 21.9186 26.6416 22.8351C26.3762 23.7515 25.8837 24.5861 25.2097 25.2614C24.5358 25.9368 23.7022 26.431 22.7863 26.6984C21.8705 26.9657 20.9019 26.9975 19.9705 26.7907C19.4587 27.5952 18.7523 28.2575 17.9165 28.7164C17.0807 29.1753 16.1427 29.4158 15.1892 29.4158C14.2358 29.4158 13.2977 29.1753 12.462 28.7164C11.6262 28.2575 10.9197 27.5952 10.408 26.7907C9.477 26.9994 8.50839 26.9697 7.59195 26.7043C6.67551 26.4389 5.84093 25.9464 5.16557 25.2724C4.49022 24.5985 3.99596 23.7649 3.72863 22.849C3.4613 21.9332 3.42955 20.9646 3.63632 20.0332C2.82876 19.5221 2.16358 18.8151 1.70264 17.9779C1.24171 17.1407 1 16.2005 1 15.2448C1 14.2892 1.24171 13.349 1.70264 12.5118C2.16358 11.6746 2.82876 10.9676 3.63632 10.4565Z" stroke="white" stroke-width="2" stroke-linecap="round" stroke-linejoin="round"/>
</svg>
