<svg width="16" height="16" viewBox="0 0 16 16" fill="none" xmlns="http://www.w3.org/2000/svg">
<g clip-path="url(#clip0_191_2996)">
<path d="M7.32086 8.32766C7.20141 8.20843 7.05906 8.11462 6.90238 8.05189L1.94613 6.06439C1.88695 6.04064 1.83645 5.99936 1.80141 5.94609C1.76637 5.89282 1.74847 5.8301 1.7501 5.76636C1.75174 5.70262 1.77283 5.6409 1.81055 5.5895C1.84827 5.53809 1.90081 5.49945 1.96113 5.47876L13.8361 1.41626C13.8915 1.39626 13.9514 1.39244 14.0089 1.40526C14.0664 1.41807 14.119 1.44699 14.1606 1.48862C14.2023 1.53026 14.2312 1.58289 14.244 1.64036C14.2568 1.69783 14.253 1.75776 14.233 1.81314L10.1705 13.6881C10.1498 13.7485 10.1112 13.801 10.0598 13.8387C10.0084 13.8764 9.94665 13.8975 9.8829 13.8992C9.81916 13.9008 9.75645 13.8829 9.70317 13.8479C9.6499 13.8128 9.60862 13.7623 9.58488 13.7031L7.59738 8.74564C7.53437 8.58907 7.4403 8.44689 7.32086 8.32766ZM7.32086 8.32766L14.1586 1.49126" stroke="white" stroke-linecap="round" stroke-linejoin="round"/>
</g>
<defs>
<clipPath id="clip0_191_2996">
<rect width="15" height="15" fill="white" transform="translate(0.5 0.149414)"/>
</clipPath>
</defs>
</svg>
